<?xml version="1.0" encoding="UTF-8" standalone="no"?>
<!DOCTYPE svg PUBLIC "-//W3C//DTD SVG 1.1//EN" "http://www.w3.org/Graphics/SVG/1.1/DTD/svg11.dtd">
<svg width="100%" height="100%" viewBox="0 0 1365 1365" version="1.1" xmlns="http://www.w3.org/2000/svg" xmlns:xlink="http://www.w3.org/1999/xlink" xml:space="preserve" xmlns:serif="http://www.serif.com/" style="fill-rule:evenodd;clip-rule:evenodd;stroke-linejoin:round;stroke-miterlimit:2;">
    <rect id="Path" x="0" y="-0.333" width="1365.33" height="1365.33"/>
    <path id="path1" d="M577.333,1194.33C413.333,1183.67 281.333,1102.33 209.333,965C193.333,937 181.333,902.333 172,863.667L165.333,842.333L137.333,841C137.333,841 114.734,841.424 109.623,840.758C108.043,840.552 106.106,837.289 106.106,837.289C104.095,834.286 104.305,832.85 105.333,830.333C106.763,826.833 132,798.333 178.667,751.667C194.667,734.333 198.667,731.667 201.333,731.667C202.667,733 206.667,737 210.667,742.333C214.667,746.333 222.667,755.667 228,762.333C232,767.667 238.667,775.667 240,781C246.667,791.667 258.667,821 266.667,846.333C269.333,858.333 269.568,854.774 273.333,866.333C273.333,866.333 280.104,889.97 298.667,926.333C306.8,942.266 311.467,955.778 312,957C351.693,1048.02 429.333,1098.33 465.333,1098.33C500,1097 521.333,1094.33 553.333,1086.33C612,1071.67 662.667,1047.67 714.667,1010.33C741.333,991.667 778.667,959.667 796,939.667C808,925 810.667,921 808,919.667C806.667,918.333 802.667,919.667 789.333,923.667C762.667,931.667 744,938.333 721.333,943.667C698.667,949 661.114,957.464 656.687,958.066C655.366,958.246 631.692,960.436 622.667,961C580,963.667 533.333,955.667 494.667,938.333C474.667,930.333 446.667,914.333 446.667,911.667C446.667,910.333 449.333,910.333 468,911.667L521.333,911.667C556,911.667 570.667,910.333 601.333,902.333C626.667,895.667 652,885 649.333,881C649.333,879.667 640,879.667 625.333,879.667C576,879.667 528,875.667 501.333,870.333C441.333,858.333 386.667,834.333 345.333,801C337.594,796.298 328.532,788.138 325.333,785C314.667,775.667 298.667,757 289.333,742.333C281.333,730.333 281.333,729 282.667,726.333C285.231,724.834 286.667,725 297.333,730.333C304,734.333 320,742.333 333.333,749C377.333,771.667 417.333,785 461.333,793C472,794.333 482.667,795.667 505.333,795.667C536,795.667 541.333,794.333 541.333,790.333C541.333,787.667 541.333,787.667 518.667,782.333C481.333,774.333 450.667,765 417.333,749C408,745 380,730.333 368,723.667C333.333,703.667 302.667,681 274.667,654.333C268,646.333 256,634.333 249.333,627.667C220,594.333 204,569 190.667,534.333C185.333,523.667 185.333,521 189.333,521C193.421,521 196,521 204,527.667C206.667,530.333 214.667,537 220,541C225.333,545 230.667,549 232,550.333C237.333,555.667 322.667,619.667 341.333,629C374.667,647.667 414.667,663.667 442.667,667.667C448,669 450.667,666.333 446.667,661C445.333,659.667 440,654.333 437.333,653C428,647.667 382.667,613 365.333,597C328,565 277.333,511.667 249.333,473C245.333,467.667 241.333,462.333 241.333,463.667L240,462.333C240,461 236,454.333 230.667,446.333C200,402.333 174.667,349 160,305C153.333,283.667 145.333,253 146.667,251.667C149.333,249 154.667,255.667 172,279.667C180,291.667 188,302.333 189.333,301L189.333,302.333C188,303.667 232,359.667 233.333,358.333C234.667,358.333 234.667,358.333 234.667,359.667C233.333,362.333 289.333,423.667 292,421C293.333,421 293.333,421 293.333,422.333C290.667,425 364,490.333 368,489C369.333,489 369.333,489 369.333,490.333C368,491.667 396,511.667 425.333,530.333C494.667,577 536,594.333 614.667,611.667C710.667,633 745.333,649 786.667,697C814.667,730.333 834.667,769 846.667,813C849.333,821 852,823.667 854.667,817C856,813 853.333,782.333 850.667,766.333C850.667,758.333 846.667,741 844,726.333C838.667,701 838.667,695.667 841.333,695.667C848,695.667 880,726.333 894.667,746.333C898.667,751.667 902.667,757 902.667,755.667L904,757C904,758.333 918.667,783.667 921.333,786.333C926.667,791.667 905.333,738.333 894.667,719.667C889.333,709 874.667,685 872,682.333C872,681 868,675.667 864,671.667C848,651.667 840,643.667 824,629L814.667,621L824,606.333C861.333,546.333 902.667,501 946.667,478.333C978.667,461 1014.67,453 1045.33,455.667C1080,459.667 1104,469 1134.67,489C1152,501 1158.67,503.667 1168,503.667C1173.33,503.667 1232,491.667 1265.33,483.667C1270.67,482.333 1270.67,482.333 1257.33,495.667C1214.67,537 1185.33,582.333 1162.67,638.333C1154.67,658.333 1145.33,687.667 1136,722.333C1117.33,785 1110.67,803.667 1096,841C1077.33,890.333 1057.33,926.333 1032,966.333C969.333,1057 886.667,1125 790.667,1162.33C753.333,1177 708,1187.67 661.333,1193C648,1194.33 590.667,1195.67 577.333,1194.33ZM1056,613C1078.67,602.333 1080,570.333 1058.67,555.667C1053.33,553 1052.01,551.248 1041.34,551.248C1030.67,551.248 1029.33,553 1024,557C1020,558.333 1016,563.667 1014.67,566.333C1010.67,573 1008.53,575.186 1008.53,584.519C1008.53,595.186 1010.67,595.667 1013.33,601C1024,617 1040,621 1056,613ZM929.333,383.667C912,381 890.667,377 881.333,375.667C872,374.333 861.333,371.667 860,370.333C857.333,370.333 849.333,359.667 840,346.333C817.333,315.667 818.667,317 804,310.333C784,301 754.597,292.093 753.333,291.667C735.937,285.802 710.667,281 688,278.333C650.667,273 590.667,282.333 545.333,299.667C530.667,305 494.667,322.333 494.667,323.667L493.333,325C489.333,325 458.667,345 440,359.667C432,366.333 429.333,367.667 425.333,365C422.667,363.667 422.667,359.667 426.667,337L430.667,318.333L426.667,313C413.333,295.667 402.667,283.667 401.333,283.667C400,283.667 400,283.667 400,282.333C401.333,282.333 400,279.667 397.333,277C390.667,267.667 392,263.667 408,253C472,211.667 530.667,189 600,179.667C624,175.667 674.667,174.333 696,177C740,181 781.333,191.667 817.333,207.667C842.667,218.333 878.667,239.667 897.333,254.333C901.333,257 905.333,259.667 906.667,259.667C906.667,259.667 910.667,251.667 916,242.333C920,233 924,225 925.333,222.333C929.333,217 940,219.667 944,226.333C945.333,227.667 952,271.667 961.333,326.333C962.667,335.667 965.333,350.333 966.667,359.667C970.667,386.333 970.667,389 962.667,389C960,389 945.333,386.333 929.333,383.667Z" style="fill:rgb(40,171,210);fill-rule:nonzero;"/>
</svg>
